<?xml version="1.0" encoding="UTF-8" standalone="no"?>
<!DOCTYPE svg PUBLIC "-//W3C//DTD SVG 1.1//EN"
 "http://www.w3.org/Graphics/SVG/1.1/DTD/svg11.dtd">
<!-- Generated by graphviz version 2.38.0 (20140413.2041)
 -->
<!-- Title: java_collection_hierachy Pages: 1 -->
<svg width="797pt" height="786pt"
 viewBox="0.00 0.00 796.77 786.00" xmlns="http://www.w3.org/2000/svg" xmlns:xlink="http://www.w3.org/1999/xlink">
<g id="graph0" class="graph" transform="scale(1 1) rotate(0) translate(4 782)">
<title>java_collection_hierachy</title>
<polygon fill="white" stroke="none" points="-4,4 -4,-782 792.766,-782 792.766,4 -4,4"/>
<!-- collection -->
<g id="node1" class="node"><title>collection</title>
<polygon fill="none" stroke="black" stroke-dasharray="5,2" points="74.487,-346 -0.16282,-346 -0.16282,-310 74.487,-310 74.487,-346"/>
<text text-anchor="middle" x="37.1621" y="-323.8" font-family="Times,serif" font-size="14.00">Collection</text>
</g>
<!-- list -->
<g id="node2" class="node"><title>list</title>
<polygon fill="none" stroke="black" stroke-dasharray="5,2" points="296.865,-697 242.865,-697 242.865,-661 296.865,-661 296.865,-697"/>
<text text-anchor="middle" x="269.865" y="-674.8" font-family="Times,serif" font-size="14.00">List</text>
</g>
<!-- list&#45;&gt;collection -->
<g id="edge1" class="edge"><title>list&#45;&gt;collection</title>
<path fill="none" stroke="black" d="M256.787,-660.623C218.633,-602.575 100.575,-422.957 55.7081,-354.695"/>
<polygon fill="black" stroke="black" points="58.5387,-352.629 50.1213,-346.195 52.6891,-356.474 58.5387,-352.629"/>
</g>
<!-- queue -->
<g id="node3" class="node"><title>queue</title>
<polygon fill="none" stroke="black" stroke-dasharray="5,2" points="164.324,-387 110.324,-387 110.324,-351 164.324,-351 164.324,-387"/>
<text text-anchor="middle" x="137.324" y="-364.8" font-family="Times,serif" font-size="14.00">Queue</text>
</g>
<!-- queue&#45;&gt;collection -->
<g id="edge2" class="edge"><title>queue&#45;&gt;collection</title>
<path fill="none" stroke="black" d="M110.276,-358.12C102.182,-354.74 93.0079,-350.908 83.9811,-347.137"/>
<polygon fill="black" stroke="black" points="85.2556,-343.877 74.6792,-343.252 82.5577,-350.336 85.2556,-343.877"/>
</g>
<!-- deque -->
<g id="node4" class="node"><title>deque</title>
<polygon fill="none" stroke="black" stroke-dasharray="5,2" points="296.865,-562 242.865,-562 242.865,-526 296.865,-526 296.865,-562"/>
<text text-anchor="middle" x="269.865" y="-539.8" font-family="Times,serif" font-size="14.00">Deque</text>
</g>
<!-- deque&#45;&gt;queue -->
<g id="edge15" class="edge"><title>deque&#45;&gt;queue</title>
<path fill="none" stroke="black" d="M255.387,-525.931C232.229,-494.886 184.793,-431.295 157.959,-395.321"/>
<polygon fill="black" stroke="black" points="160.71,-393.156 151.925,-387.233 155.099,-397.341 160.71,-393.156"/>
</g>
<!-- set -->
<g id="node5" class="node"><title>set</title>
<polygon fill="none" stroke="black" stroke-dasharray="5,2" points="164.324,-306 110.324,-306 110.324,-270 164.324,-270 164.324,-306"/>
<text text-anchor="middle" x="137.324" y="-283.8" font-family="Times,serif" font-size="14.00">Set</text>
</g>
<!-- set&#45;&gt;collection -->
<g id="edge3" class="edge"><title>set&#45;&gt;collection</title>
<path fill="none" stroke="black" d="M110.276,-298.614C102.182,-301.912 93.0079,-305.651 83.9811,-309.329"/>
<polygon fill="black" stroke="black" points="82.6191,-306.105 74.6792,-313.12 85.2606,-312.587 82.6191,-306.105"/>
</g>
<!-- map -->
<g id="node6" class="node"><title>map</title>
<polygon fill="none" stroke="black" stroke-dasharray="5,2" points="164.324,-144 110.324,-144 110.324,-108 164.324,-108 164.324,-144"/>
<text text-anchor="middle" x="137.324" y="-121.8" font-family="Times,serif" font-size="14.00">Map</text>
</g>
<!-- map&#45;&gt;collection -->
<g id="edge4" class="edge"><title>map&#45;&gt;collection</title>
<path fill="none" stroke="black" d="M127.44,-144.282C110.101,-179.962 71.6788,-259.029 51.3566,-300.848"/>
<polygon fill="black" stroke="black" points="48.1785,-299.38 46.9557,-309.904 54.4745,-302.44 48.1785,-299.38"/>
</g>
<!-- stack -->
<g id="node7" class="node"><title>stack</title>
<ellipse fill="none" stroke="black" cx="473.425" cy="-760" rx="29.5104" ry="18"/>
<text text-anchor="middle" x="473.425" y="-755.8" font-family="Times,serif" font-size="14.00">Stack</text>
</g>
<!-- stack&#45;&gt;list -->
<g id="edge5" class="edge"><title>stack&#45;&gt;list</title>
<path fill="none" stroke="black" d="M445.173,-754.004C425.454,-749.285 398.353,-742.009 375.406,-733 351.604,-723.655 326.085,-710.538 306.218,-699.572"/>
<polygon fill="black" stroke="black" points="307.669,-696.374 297.233,-694.548 304.253,-702.483 307.669,-696.374"/>
</g>
<!-- array_list -->
<g id="node8" class="node"><title>array_list</title>
<ellipse fill="none" stroke="black" cx="473.425" cy="-706" rx="44.475" ry="18"/>
<text text-anchor="middle" x="473.425" y="-701.8" font-family="Times,serif" font-size="14.00">ArrayList</text>
</g>
<!-- array_list&#45;&gt;list -->
<g id="edge6" class="edge"><title>array_list&#45;&gt;list</title>
<path fill="none" stroke="black" d="M430.662,-700.406C394.192,-695.52 341.802,-688.502 307.077,-683.851"/>
<polygon fill="black" stroke="black" points="307.281,-680.347 296.904,-682.488 306.351,-687.285 307.281,-680.347"/>
</g>
<!-- linked_list -->
<g id="node9" class="node"><title>linked_list</title>
<ellipse fill="none" stroke="black" cx="473.425" cy="-652" rx="48.8273" ry="18"/>
<text text-anchor="middle" x="473.425" y="-647.8" font-family="Times,serif" font-size="14.00">LinkedList</text>
</g>
<!-- linked_list&#45;&gt;list -->
<g id="edge7" class="edge"><title>linked_list&#45;&gt;list</title>
<path fill="none" stroke="black" d="M427.191,-658.059C391.059,-662.9 341.072,-669.595 307.437,-674.101"/>
<polygon fill="black" stroke="black" points="306.576,-670.685 297.129,-675.482 307.506,-677.623 306.576,-670.685"/>
</g>
<!-- linked_list&#45;&gt;deque -->
<g id="edge17" class="edge"><title>linked_list&#45;&gt;deque</title>
<path fill="none" stroke="black" d="M429.559,-643.857C412.185,-639.602 392.281,-633.473 375.406,-625 346.242,-610.357 317.237,-587.005 297.205,-569.129"/>
<polygon fill="black" stroke="black" points="299.477,-566.465 289.722,-562.333 294.771,-571.647 299.477,-566.465"/>
</g>
<!-- blocking_queue -->
<g id="node10" class="node"><title>blocking_queue</title>
<polygon fill="none" stroke="black" stroke-dasharray="5,2" points="321.735,-441 217.996,-441 217.996,-405 321.735,-405 321.735,-441"/>
<text text-anchor="middle" x="269.865" y="-418.8" font-family="Times,serif" font-size="14.00">BlockingQueue</text>
</g>
<!-- blocking_queue&#45;&gt;queue -->
<g id="edge12" class="edge"><title>blocking_queue&#45;&gt;queue</title>
<path fill="none" stroke="black" d="M222.32,-404.922C214.944,-401.983 207.413,-398.939 200.324,-396 191.735,-392.439 182.527,-388.498 173.904,-384.752"/>
<polygon fill="black" stroke="black" points="175.047,-381.432 164.482,-380.636 172.245,-387.847 175.047,-381.432"/>
</g>
<!-- array_blocking_queue -->
<g id="node11" class="node"><title>array_blocking_queue</title>
<ellipse fill="none" stroke="black" cx="473.425" cy="-436" rx="86.4704" ry="18"/>
<text text-anchor="middle" x="473.425" y="-431.8" font-family="Times,serif" font-size="14.00">ArrayBlockingQueue</text>
</g>
<!-- array_blocking_queue&#45;&gt;blocking_queue -->
<g id="edge9" class="edge"><title>array_blocking_queue&#45;&gt;blocking_queue</title>
<path fill="none" stroke="black" d="M390.734,-430.731C371.122,-429.466 350.509,-428.137 332.014,-426.944"/>
<polygon fill="black" stroke="black" points="332.182,-423.448 321.977,-426.297 331.731,-430.433 332.182,-423.448"/>
</g>
<!-- linked_blocking_queue -->
<g id="node12" class="node"><title>linked_blocking_queue</title>
<ellipse fill="none" stroke="black" cx="473.425" cy="-382" rx="90.8222" ry="18"/>
<text text-anchor="middle" x="473.425" y="-377.8" font-family="Times,serif" font-size="14.00">LinkedBlockingQueue</text>
</g>
<!-- linked_blocking_queue&#45;&gt;blocking_queue -->
<g id="edge10" class="edge"><title>linked_blocking_queue&#45;&gt;blocking_queue</title>
<path fill="none" stroke="black" d="M409.48,-394.804C384.709,-399.843 356.37,-405.607 331.799,-410.605"/>
<polygon fill="black" stroke="black" points="330.978,-407.201 321.876,-412.624 332.373,-414.06 330.978,-407.201"/>
</g>
<!-- priority_queue -->
<g id="node13" class="node"><title>priority_queue</title>
<ellipse fill="none" stroke="black" cx="269.865" cy="-369" rx="60.4202" ry="18"/>
<text text-anchor="middle" x="269.865" y="-364.8" font-family="Times,serif" font-size="14.00">PriorityQueue</text>
</g>
<!-- priority_queue&#45;&gt;queue -->
<g id="edge8" class="edge"><title>priority_queue&#45;&gt;queue</title>
<path fill="none" stroke="black" d="M209.325,-369C197.524,-369 185.47,-369 174.725,-369"/>
<polygon fill="black" stroke="black" points="174.473,-365.5 164.473,-369 174.473,-372.5 174.473,-365.5"/>
</g>
<!-- priority_blocking_queue -->
<g id="node14" class="node"><title>priority_blocking_queue</title>
<ellipse fill="none" stroke="black" cx="473.425" cy="-328" rx="92.7688" ry="18"/>
<text text-anchor="middle" x="473.425" y="-323.8" font-family="Times,serif" font-size="14.00">PriorityBlockingQueue</text>
</g>
<!-- priority_blocking_queue&#45;&gt;blocking_queue -->
<g id="edge11" class="edge"><title>priority_blocking_queue&#45;&gt;blocking_queue</title>
<path fill="none" stroke="black" d="M407.065,-340.568C396.021,-344.24 385.03,-348.955 375.406,-355 354.872,-367.898 359.244,-382.054 339.406,-396 336.738,-397.876 333.922,-399.646 331.013,-401.312"/>
<polygon fill="black" stroke="black" points="329.295,-398.261 322.064,-406.004 332.546,-404.46 329.295,-398.261"/>
</g>
<!-- blocking_deque -->
<g id="node15" class="node"><title>blocking_deque</title>
<polygon fill="none" stroke="black" stroke-dasharray="5,2" points="525.295,-508 421.556,-508 421.556,-472 525.295,-472 525.295,-508"/>
<text text-anchor="middle" x="473.425" y="-485.8" font-family="Times,serif" font-size="14.00">BlockingDeque</text>
</g>
<!-- blocking_deque&#45;&gt;deque -->
<g id="edge14" class="edge"><title>blocking_deque&#45;&gt;deque</title>
<path fill="none" stroke="black" d="M421.303,-503.696C385.521,-513.283 338.606,-525.852 306.747,-534.387"/>
<polygon fill="black" stroke="black" points="305.719,-531.039 296.966,-537.007 307.531,-537.8 305.719,-531.039"/>
</g>
<!-- blocking_deque&#45;&gt;blocking_queue -->
<g id="edge16" class="edge"><title>blocking_deque&#45;&gt;blocking_queue</title>
<path fill="none" stroke="black" d="M421.549,-476.81C406.596,-472.673 390.268,-467.899 375.406,-463 358.744,-457.507 340.833,-450.914 324.625,-444.679"/>
<polygon fill="black" stroke="black" points="325.89,-441.416 315.301,-441.061 323.358,-447.942 325.89,-441.416"/>
</g>
<!-- linked_blocking_deque -->
<g id="node16" class="node"><title>linked_blocking_deque</title>
<ellipse fill="none" stroke="black" cx="698.105" cy="-490" rx="90.8222" ry="18"/>
<text text-anchor="middle" x="698.105" y="-485.8" font-family="Times,serif" font-size="14.00">LinkedBlockingDeque</text>
</g>
<!-- linked_blocking_deque&#45;&gt;blocking_deque -->
<g id="edge13" class="edge"><title>linked_blocking_deque&#45;&gt;blocking_deque</title>
<path fill="none" stroke="black" d="M607.175,-490C583.104,-490 557.645,-490 535.532,-490"/>
<polygon fill="black" stroke="black" points="535.296,-486.5 525.296,-490 535.296,-493.5 535.296,-486.5"/>
</g>
<!-- array_deque -->
<g id="node17" class="node"><title>array_deque</title>
<ellipse fill="none" stroke="black" cx="473.425" cy="-598" rx="53.6213" ry="18"/>
<text text-anchor="middle" x="473.425" y="-593.8" font-family="Times,serif" font-size="14.00">ArrayDeque</text>
</g>
<!-- array_deque&#45;&gt;deque -->
<g id="edge18" class="edge"><title>array_deque&#45;&gt;deque</title>
<path fill="none" stroke="black" d="M430.662,-586.811C394.035,-576.998 341.35,-562.883 306.629,-553.581"/>
<polygon fill="black" stroke="black" points="307.47,-550.183 296.904,-550.976 305.658,-556.945 307.47,-550.183"/>
</g>
<!-- concurrent_linked_deque -->
<g id="node18" class="node"><title>concurrent_linked_deque</title>
<ellipse fill="none" stroke="black" cx="473.425" cy="-544" rx="98.038" ry="18"/>
<text text-anchor="middle" x="473.425" y="-539.8" font-family="Times,serif" font-size="14.00">ConcurrentLinkedDeque</text>
</g>
<!-- concurrent_linked_deque&#45;&gt;deque -->
<g id="edge19" class="edge"><title>concurrent_linked_deque&#45;&gt;deque</title>
<path fill="none" stroke="black" d="M375.188,-544C350.895,-544 326.327,-544 307.14,-544"/>
<polygon fill="black" stroke="black" points="307.07,-540.5 297.07,-544 307.07,-547.5 307.07,-540.5"/>
</g>
<!-- sorted_set -->
<g id="node19" class="node"><title>sorted_set</title>
<polygon fill="none" stroke="black" stroke-dasharray="5,2" points="305.308,-306 234.423,-306 234.423,-270 305.308,-270 305.308,-306"/>
<text text-anchor="middle" x="269.865" y="-283.8" font-family="Times,serif" font-size="14.00">SortedSet</text>
</g>
<!-- sorted_set&#45;&gt;set -->
<g id="edge23" class="edge"><title>sorted_set&#45;&gt;set</title>
<path fill="none" stroke="black" d="M234.567,-288C216.169,-288 193.496,-288 174.779,-288"/>
<polygon fill="black" stroke="black" points="174.56,-284.5 164.56,-288 174.56,-291.5 174.56,-284.5"/>
</g>
<!-- hash_set -->
<g id="node20" class="node"><title>hash_set</title>
<ellipse fill="none" stroke="black" cx="269.865" cy="-234" rx="39.6645" ry="18"/>
<text text-anchor="middle" x="269.865" y="-229.8" font-family="Times,serif" font-size="14.00">HashSet</text>
</g>
<!-- hash_set&#45;&gt;set -->
<g id="edge21" class="edge"><title>hash_set&#45;&gt;set</title>
<path fill="none" stroke="black" d="M239.084,-245.467C227.014,-250.183 212.966,-255.759 200.324,-261 191.735,-264.561 182.527,-268.502 173.904,-272.248"/>
<polygon fill="black" stroke="black" points="172.245,-269.153 164.482,-276.364 175.047,-275.568 172.245,-269.153"/>
</g>
<!-- linked_hash_set -->
<g id="node21" class="node"><title>linked_hash_set</title>
<ellipse fill="none" stroke="black" cx="473.425" cy="-220" rx="64.7632" ry="18"/>
<text text-anchor="middle" x="473.425" y="-215.8" font-family="Times,serif" font-size="14.00">LinkedHashSet</text>
</g>
<!-- linked_hash_set&#45;&gt;hash_set -->
<g id="edge20" class="edge"><title>linked_hash_set&#45;&gt;hash_set</title>
<path fill="none" stroke="black" d="M410.581,-224.296C381.234,-226.334 346.681,-228.734 319.28,-230.637"/>
<polygon fill="black" stroke="black" points="318.888,-227.156 309.154,-231.341 319.373,-234.139 318.888,-227.156"/>
</g>
<!-- tree_set -->
<g id="node22" class="node"><title>tree_set</title>
<ellipse fill="none" stroke="black" cx="473.425" cy="-274" rx="37.0969" ry="18"/>
<text text-anchor="middle" x="473.425" y="-269.8" font-family="Times,serif" font-size="14.00">TreeSet</text>
</g>
<!-- tree_set&#45;&gt;sorted_set -->
<g id="edge22" class="edge"><title>tree_set&#45;&gt;sorted_set</title>
<path fill="none" stroke="black" d="M436.391,-276.503C402.587,-278.851 351.929,-282.369 315.564,-284.895"/>
<polygon fill="black" stroke="black" points="314.976,-281.428 305.243,-285.612 315.461,-288.411 314.976,-281.428"/>
</g>
<!-- hash_map -->
<g id="node23" class="node"><title>hash_map</title>
<ellipse fill="none" stroke="black" cx="269.865" cy="-180" rx="44.4837" ry="18"/>
<text text-anchor="middle" x="269.865" y="-175.8" font-family="Times,serif" font-size="14.00">HashMap</text>
</g>
<!-- hash_map&#45;&gt;map -->
<g id="edge24" class="edge"><title>hash_map&#45;&gt;map</title>
<path fill="none" stroke="black" d="M237.035,-167.732C225.443,-163.193 212.257,-157.947 200.324,-153 191.735,-149.439 182.527,-145.498 173.904,-141.752"/>
<polygon fill="black" stroke="black" points="175.047,-138.432 164.482,-137.636 172.245,-144.847 175.047,-138.432"/>
</g>
<!-- linked_hash_map -->
<g id="node24" class="node"><title>linked_hash_map</title>
<ellipse fill="none" stroke="black" cx="269.865" cy="-126" rx="69.5823" ry="18"/>
<text text-anchor="middle" x="269.865" y="-121.8" font-family="Times,serif" font-size="14.00">LinkedHashMap</text>
</g>
<!-- linked_hash_map&#45;&gt;map -->
<g id="edge25" class="edge"><title>linked_hash_map&#45;&gt;map</title>
<path fill="none" stroke="black" d="M200.154,-126C191.356,-126 182.642,-126 174.653,-126"/>
<polygon fill="black" stroke="black" points="174.622,-122.5 164.622,-126 174.622,-129.5 174.622,-122.5"/>
</g>
<!-- sorted_map -->
<g id="node25" class="node"><title>sorted_map</title>
<polygon fill="none" stroke="black" stroke-dasharray="5,2" points="309.08,-90 230.651,-90 230.651,-54 309.08,-54 309.08,-90"/>
<text text-anchor="middle" x="269.865" y="-67.8" font-family="Times,serif" font-size="14.00">SortedMap</text>
</g>
<!-- sorted_map&#45;&gt;map -->
<g id="edge27" class="edge"><title>sorted_map&#45;&gt;map</title>
<path fill="none" stroke="black" d="M230.702,-86.7565C220.783,-90.6676 210.13,-94.9349 200.324,-99 191.735,-102.561 182.527,-106.502 173.904,-110.248"/>
<polygon fill="black" stroke="black" points="172.245,-107.153 164.482,-114.364 175.047,-113.568 172.245,-107.153"/>
</g>
<!-- tree_map -->
<g id="node26" class="node"><title>tree_map</title>
<ellipse fill="none" stroke="black" cx="473.425" cy="-72" rx="42.4162" ry="18"/>
<text text-anchor="middle" x="473.425" y="-67.8" font-family="Times,serif" font-size="14.00">TreeMap</text>
</g>
<!-- tree_map&#45;&gt;sorted_map -->
<g id="edge26" class="edge"><title>tree_map&#45;&gt;sorted_map</title>
<path fill="none" stroke="black" d="M431.15,-72C398.689,-72 353.396,-72 319.235,-72"/>
<polygon fill="black" stroke="black" points="319.017,-68.5001 309.017,-72 319.017,-75.5001 319.017,-68.5001"/>
</g>
<!-- concurrent_map -->
<g id="node27" class="node"><title>concurrent_map</title>
<polygon fill="none" stroke="black" stroke-dasharray="5,2" points="322.008,-36 217.723,-36 217.723,-0 322.008,-0 322.008,-36"/>
<text text-anchor="middle" x="269.865" y="-13.8" font-family="Times,serif" font-size="14.00">ConcurrentMap</text>
</g>
<!-- concurrent_map&#45;&gt;map -->
<g id="edge29" class="edge"><title>concurrent_map&#45;&gt;map</title>
<path fill="none" stroke="black" d="M217.418,-34.6546C211.384,-37.6366 205.531,-41.0714 200.324,-45 180.943,-59.6235 164.538,-81.8159 153.481,-99.2758"/>
<polygon fill="black" stroke="black" points="150.432,-97.5528 148.199,-107.91 156.403,-101.206 150.432,-97.5528"/>
</g>
<!-- concurrent_hash_map -->
<g id="node28" class="node"><title>concurrent_hash_map</title>
<ellipse fill="none" stroke="black" cx="473.425" cy="-18" rx="84.0496" ry="18"/>
<text text-anchor="middle" x="473.425" y="-13.8" font-family="Times,serif" font-size="14.00">ConcurrentHashMap</text>
</g>
<!-- concurrent_hash_map&#45;&gt;concurrent_map -->
<g id="edge28" class="edge"><title>concurrent_hash_map&#45;&gt;concurrent_map</title>
<path fill="none" stroke="black" d="M388.988,-18C369.978,-18 350.12,-18 332.228,-18"/>
<polygon fill="black" stroke="black" points="332.227,-14.5001 322.227,-18 332.227,-21.5001 332.227,-14.5001"/>
</g>
</g>
</svg>
